<svg id="svg23" xmlns="http://www.w3.org/2000/svg" viewBox="0 0 308.76 296.41"><defs><style>.cls-1{fill:#ff4a3f;}.cls-2{font-size:240px;fill:#fff;font-family:CooperBlack, Cooper Black;}</style></defs><g id="SvgjsG2685"><g id="g17"><path id="path3" class="cls-1" d="M56.48,43.76h1.43l-1.15-.57Zm3.71-1.71c0,.28,0,.28.29.28l1.15-.85C61.05,41.19,60.77,41.19,60.19,42.05ZM49,49.77l.86-.57a.9.9,0,0,0,.28-.57h-.57L49,49.77C48.75,49.48,48.75,49.77,49,49.77Zm6.29-8.29h-.28l-.58.57h.86Zm-6,6.86L51,46.91a1,1,0,0,0,.29-.86h-.86L47,49.2l-.57,1.14,2-1.71Z" transform="translate(0 -8.5)"/><path id="path5" class="cls-1" d="M27.59,71.51v-.57a4.83,4.83,0,0,1,2-3.15l2.57-1.72,1.43-1.71,2-2,1.14-1.15,1.14-.86a5.35,5.35,0,0,0,2.29-2.57l1.15-1.43a17,17,0,0,0,2.86-3.72l.57-.86.86-.57L45,50.34l1.15-1.43c2.29-1.71,4-4,6.29-5.72l.86-.86a4,4,0,0,1,1.43-1.71l2.29-1.15h1.14a4,4,0,0,0,2-1.71v-.58a10.09,10.09,0,0,1,3.72-4l2.29-1.43.57-.57L67.92,30l2.86-1.43h.57L68.2,29.75l-4,2.86c-1.72,1.43-4,1.71-5.15,4h.86c-2,.57-4,1.43-4.86,3.44s-2.29,1.71-3.44,2.57a1.14,1.14,0,0,0-.85,1.14c-2.29-.28-3.15,1.43-4.29,2.58v2.29a11.09,11.09,0,0,0-4.58,4c-4.58.29-4.58,6-8.58,7.15H33a.58.58,0,0,0,0,.57c-.86,0-1.43.58-1.14,1.43l-.57,1.43c-2,1.15-1.72,3.15-2.87,4.87-2.28,1.43-3.14,4.29-4.86,6.29l.86,1.43.57-.57A32.87,32.87,0,0,1,27.59,71.51ZM154,9.44l1.71.57h.57a6.26,6.26,0,0,0,4,.57,11.74,11.74,0,0,1,5.43.29h3.44a4,4,0,0,1,3.43.86.28.28,0,0,1,0,.28h-1.15a.3.3,0,0,0,0,.29h2a5.16,5.16,0,0,1,3.71,0c.58,0,.29.29.58.57l1.43.57h-.58a2.1,2.1,0,0,0-2.28-1.14A27.63,27.63,0,0,0,164,9.73h-2.29a28,28,0,0,0-10.3-1.15H152Zm20.88,8.87h0Zm21.45,1.43a2.58,2.58,0,0,0,2.86.57h1.72a8.86,8.86,0,0,0-5.15-2l-2-.58,1.43.86ZM186.62,16c0,.28.29.57.58.86h.57L189.2,16a12.11,12.11,0,0,0-4.86-1.72l2,1.15Zm21.17,7.72,2.29,1.43A2.55,2.55,0,0,0,207.79,23.74Z" transform="translate(0 -8.5)"/><path id="path7" class="cls-1" d="M283,217.67l1.71-4.57,1.72-4.29c.57-1.43,1.72-5.15,2.29-7.44a4.76,4.76,0,0,1,.86-2h.28v-3.15c1.43-.28,1.15-1.71,1.43-2.57l2.29-13.45a36.19,36.19,0,0,0,0-17.73,5.43,5.43,0,0,0-1.43-4.58v-12.3c-.86-2.57.86-5.43-1.14-7.72l-2.29-9.15a1.14,1.14,0,0,0,0-.58l-.57-1.71a1.44,1.44,0,0,1,0-1.15h.28c.86,0,.86-1.43.86-2.57a8.72,8.72,0,0,0-1.14-3.15l-.86-1.14a3.11,3.11,0,0,1-.57-2,19.3,19.3,0,0,0-.58-5.72V109c-.57-2-1.14-4.29-1.71-6.29l-.57-1.43a7.15,7.15,0,0,1-1.15-3.15,7,7,0,0,0-.86-2.29L280.16,93a2.3,2.3,0,0,0-1.72-.57h-.28v-.86h-.58V89.24h-.28v-.57a1.31,1.31,0,0,0,0-.28v-.58c.28-.57.28-.85-.29-1.43a5.18,5.18,0,0,1-1.14-1.71L275.29,83a8.1,8.1,0,0,0-2-3.43,6.43,6.43,0,0,1-1.43-2l-2-4.58a12.22,12.22,0,0,0-1.72-2.86l-1.71-2.29a7,7,0,0,1-1.15-2.29l-.57-.86a1.69,1.69,0,0,1-.28-1.43,1.43,1.43,0,0,0-.58-1.14l-1.14-.86v.57c.29.58,0,.86-.29.86h-.57l.86,2.86.86,1.43,2,2.58h-.29l-.57-.58-.57-.57a3.72,3.72,0,0,0-3.43-3.14v-2c-.86-3.43-4.58-3.71-6.3-6a4.31,4.31,0,0,0-3.14-2.58L249,52.06a32.34,32.34,0,0,0-8.87-8.58l-2.29-1.72-1.14-.86c-2-2-2.86-5.15-6.29-5.15l-2.29-1.43-2.58-2a6.27,6.27,0,0,0-5.14-3.72,14.64,14.64,0,0,0-6.58-3.43l.57.57,1.43,1.15,3.72,2a24.13,24.13,0,0,1,6,4.58,19.22,19.22,0,0,0,4.3,3.14L231.53,38c.29.29.57.58.29.86h-.29L229,38a15.82,15.82,0,0,1-5.72-2.29L219.8,34l-3.71-2h-.58c-.85-.29-1.14-1.15-2.29-1.43L210.94,30l-7.15-1.43a7.43,7.43,0,0,1-2.58-2,4.76,4.76,0,0,1-2.57-.86l-2.86-1.14a51.59,51.59,0,0,1-8-2.29l-1.72-.57-2.86-.86h-1.43l-.57-.86v-.28h-4.58l-1.71-1.43-1.15.57-1.14.57H172L169.46,18c-1.72,1.72-3.15-.57-4.58-.29L162,16.88a3.44,3.44,0,0,1-3.43,0h-3.43a1.71,1.71,0,0,1-1.43-1.72l.86-.57h1.71a2,2,0,0,1,.29.86c0,.57.57.57,1.43.57h.57l-1.14-1.72a3.14,3.14,0,0,0-2.86-.57l-2.86.86h-.29c.86.57.57.86.57,1.43h-4.57l-1.15-.57L144,14.3h-.28l-2-.57h-6.58l1.14-.57,2.29-.57h.86l4.86-.86,3.15-.57,1.71-.58H146a24.15,24.15,0,0,0-9.73,0h-3.72l-9.72-.28c-4,.28-8,0-11.16,3.43-7.15-1.14-13.44,2-19.73,5.15l-6.3,2.57A19.22,19.22,0,0,0,75.07,26.6h.86l1.43-.86,2.29-1.43,3.71-1.71L86.22,22A17.32,17.32,0,0,1,92,19.45l2.57-.86h.57c.29.57,1.43,0,2,0h.58c.28,0,.28.29,0,.29L96,20l2.86-.86,2.29-.57-3.72,2-3.72,1.15A2.83,2.83,0,0,0,92,23.17l-.86,1.43H92L93.09,24a4,4,0,0,1,2.57-1.72L100,20.88h1.43a.33.33,0,0,1,.43.14.32.32,0,0,1-.14.43h0c-.57.57-1.72.86-2.29,1.43H100L90.8,25.46,79.93,30a14.81,14.81,0,0,1-6.58,3.44,18.91,18.91,0,0,1-4.86,3.14l-2.29.57a4.28,4.28,0,0,1-3.72,2.58l-.85,1.43a10.7,10.7,0,0,1-3.44,3.15h-.28v-.29l-.58.57-.57.57-2.86.58H52.47L51.33,47.2c-.29.28-.29.57,0,.57h.28c-1.71,1.71-2.86,4-5.14,4.86l-3.72,4.29C41,60.35,37.6,61.5,35.31,64.36s-4,11.15-11.16,12.3l-.57-.86L23,77.23a7.92,7.92,0,0,1-1.14,2.29,47.62,47.62,0,0,0-3.44,6A2.22,2.22,0,0,0,18.15,87a4,4,0,0,1-.57,2.28l-1.43,3.15h.57c.86,0,.86.86,1.14,1.72L20.15,91a6.23,6.23,0,0,1,1.72-2,5.73,5.73,0,0,0,2.57-2.58l.86-.85,1.14-1.15,1.72-3.15h.57c.29.29.29.29.57,0l.58-1.14h1.43v2.29L32.74,81a1.46,1.46,0,0,0,0-1.43,1.13,1.13,0,0,1,.28-.86,4.27,4.27,0,0,0,.86-1.43,3.7,3.7,0,0,1,2.29-2.57l.86-.58.85-.85a6.88,6.88,0,0,0,2.29-2.86l-.57-.86a2.22,2.22,0,0,1,.57-1.15H41.6l1.72-2.29L45,65.22h.58A139.13,139.13,0,0,0,29.88,85.81h0a137.84,137.84,0,0,0-15.16,32H13.28l-1.43-1.15c-.57-.57-.28-2-1.14-2.57H11c.85-1.43-.29-3.43.85-4.86s.29-4-2.57-3.44S5,107.26,5.56,110.12s-2.86,5.15-3.14,8.3S1,119.85,1.56,121v11.16c.28,2.29-1.43,5.15,2.29,6l3.71,2.57c.29,1.43-1.43,4.58,2.58,3.72a139.44,139.44,0,0,0-.86,14.3c0,3.15.29,6.29.29,9.44v-1.14c-.29-1.15-.29-2.29-.58-3.72l-.85.86v-.58H6.71c0,1.43-.29,2.29-1.15,2.58a2.53,2.53,0,0,0-.28,1.43c0,.28.28.86.57.57s1.14.57,2,1.14-.57.86-1.14.58-.58.28-.58.85v.86l1.43,4.29c0,.86-.28,1.72-.28,2.58a4.83,4.83,0,0,0,.57,2.29H7v-.86l-2-.57v-1.72a4.29,4.29,0,0,0,0-1.43,42.89,42.89,0,0,1-.86-5.15,47.92,47.92,0,0,1-.57-10,2.53,2.53,0,0,1,.29-1.43v.57a8.81,8.81,0,0,1,.28,1.43,2.31,2.31,0,0,0,.29,1.15c.28.57.57,1.14,1.14,1.14s.29-.29.29-.57a6.26,6.26,0,0,0-.29-1.43,12.22,12.22,0,0,1-.86-3.72,4.31,4.31,0,0,0-.85-2,4.65,4.65,0,0,1-.58-2.58v-2.29c0-.85.29-1.71.29-2.57a1.41,1.41,0,0,0-.29-1.14H3c-2.29,1.14-2,.57-2.86,4.57v5.15a41.57,41.57,0,0,0,0,6,30.33,30.33,0,0,0,.57,6.58,4.89,4.89,0,0,1,0,1.43A8.6,8.6,0,0,0,1,173.91a17.19,17.19,0,0,1,.28,3.72,11.15,11.15,0,0,0,.57,4.86,3.18,3.18,0,0,1,0,1.15,6.07,6.07,0,0,0,.29,2.28,14.15,14.15,0,0,1,.57,2.58,40.91,40.91,0,0,0,1.43,6.29,13.94,13.94,0,0,1,.57,2.86,4.84,4.84,0,0,0,.86,2A8.35,8.35,0,0,1,7,203.09,26.11,26.11,0,0,0,7.85,206L9,210a15.67,15.67,0,0,0,1.72,4.29,23.91,23.91,0,0,1,2.29,6l.57,1.43A6,6,0,0,1,15,224.54a5.83,5.83,0,0,0,1.15,2.29,3,3,0,0,1,.57,1.43c.28.86.57,1.14,1.14.86h.29v2.57l1.43,2.86L21,237.41l3.14,3.43L25.3,242c.86.86,2,1.43,2.57,2.86l1.15.86a2,2,0,0,1,.86,1.43l.57,2a9.23,9.23,0,0,0,1.71,2.57l1.15.57h.86a.59.59,0,0,1,.35.73.54.54,0,0,1-.07.13,6.83,6.83,0,0,0,0,1.43A2.55,2.55,0,0,0,35.6,256h.57c1.14-.28,2.29.58,3.43,2h.29c0-.29.28-.29,0-.58v-.57c0-.28.28-.57.57-.28a2,2,0,0,1,.86,1.71v.57a12.32,12.32,0,0,0,1.14,3.44c1.43.85,1.43.85,1.43.28s0-.57.57-.57h1.15l.57.86,2.29,1.43c2,2.29,5.15,2,7.43,3.43l4.87,4.86h.57a8.24,8.24,0,0,0,4.58,4.58,3.72,3.72,0,0,0,2.86,1.72c0,1.43,1.71,1.71,3.14,2A3.44,3.44,0,0,0,74.21,282h.57a4.85,4.85,0,0,0,4.29,1.43l2.58,2.29,6.86,2.58v.57c1.43,3.14,4.87,2,7.15,2.86l3.15,1.14H100c3.44.86,6.87,2.58,10.59,1.43a2,2,0,0,0,0,1.15c3.14,2,6.86,0,10.29,1.14a8.35,8.35,0,0,0,4.87.29H126l2.29.57h.86l2.57.57h.86a1.46,1.46,0,0,1,1.43,0,22.08,22.08,0,0,0,4.29,1.14H140a2,2,0,0,1,2,0h11.16a14,14,0,0,0,4.57-.28h2.86l1.43-.57h9.44l1.72-.58,1.43-.85h6.29v1.71h-3.72l-3.43.57c-1.14.29-2,0-2.86.29a6.86,6.86,0,0,1-2.86.57l-3.72.86h-1.14a8.79,8.79,0,0,0-4.29.29h-5.15a3.22,3.22,0,0,1-2.58,0H138.28a3.67,3.67,0,0,0-3.14.86h-.86l-.86-.58v-.85H130a11.66,11.66,0,0,0-3.72-.86h-7.15l-2-.58-1.43-.57-6-1.14h-1.43l-1.43-.57-6-2-4-1.14h-6.3c-.28,0-.28.29-.28.57h.57c3.72,1.43,7.44,2.58,11.16,4.29h.85l2.58.57,4,1.15h3.72l1.72.57,2,.86,4.86.86,3.15.57,3.15.57h2.28l2.29.57h8.87l2.86.58h6.58l2.86-.58H160c1.15,0,1.72-.28,2-.85h2.86a2.86,2.86,0,0,0,2.29-.86c-.28.28,0,.28.29.57h1.14v-.57c0-.29,0-.29.58-.57s1.71-.29,2,.28h1.14l.86-.57c.57,0,.57,0,.57.29h2l1.43-.58,2.29-1.14c.29.86,1.15,1.14,3.72.57l3.72-1.14h3.43c2.58-.29,5.72,0,7.72-2h.58l1.14-.85,3.15-.86a17.43,17.43,0,0,0,5.72-2.29l1.14-.57h.29l2.57-1.72,1.15-.57,1.43-.57h1.14c1.15-.29,1.15-.29,1.43-1.15s0-.28-.57-.28h-.29l1.15-1.43h.57c.86-.29,1.43-.57,2-.29h.57a3.71,3.71,0,0,0,2.58-2.57c.86-1.15,3.14-.58,3.72-2.29l12.3-8.87c3.14-.28,4-3.14,6.29-4.86s6.58-3.15,8.58-6.29l2.57-1.15h.29a2.85,2.85,0,0,0,3.43-2v1.14c2.29-1.14,5.15.86,7.44-1.43s0-7.72,2.86-10.87l2-1.43a34.51,34.51,0,0,0,4.29-12l.58-.57a2.51,2.51,0,0,1,1.14-2.58,2.57,2.57,0,0,0,.57-3.43h-.57a.88.88,0,0,0,0-.86c2,0,2.29-2,3.43-2.86v-4a1.37,1.37,0,0,1,0-.57,11.33,11.33,0,0,0,.29-2Z" transform="translate(0 -8.5)"/><path id="path9" class="cls-1" d="M75.35,26.6l-.85.57L73.35,28l1.43-.57ZM92.8,20.88h.29l.86-.57H92.8Zm-7.43,2.86-.29.29h.29ZM26.16,74.94,25,76.09h.57A1.15,1.15,0,0,0,26.16,74.94Zm8.58-10a6.3,6.3,0,0,0,.86-1.72,4.25,4.25,0,0,0-1.43,1.43c-.29.29-.29.58,0,.58Zm-3.43,4.29v-.57c-.58,0-1.43.86-2.29.86v.57C29.88,70.94,30.16,70.65,31.31,69.22Zm179.91-42.9h.29l-1.43-.86Zm-7.15-4c1.43-.29,2.29,1.15,3.43,1.43h.29l-.86-.57-2.86-1.43-3.14-1.43.85.57Zm-19.73-7.72h-.29L180.62,14h1.43Zm5.72,2,3.71,1.14A9.49,9.49,0,0,0,190.06,16.59Zm-25.75,0a2.8,2.8,0,0,0,.57-1.43h-1.43l-.85.86,1.14.86Zm13.73.86a1.31,1.31,0,0,0,0,.28Zm128.15,149.6h-.86V165.9h.86c.28,0,.57-.86.28-1.14s-.28-2-.86-2.29a.87.87,0,0,1-.57-.86l.57-1.14a1.14,1.14,0,0,0,0-.58H305l-.57-.85c-.29.85-.57,1.71-1.14,2a1.37,1.37,0,0,0,0,.57c0,.29,0,.57-.29.57h-.29a3.21,3.21,0,0,1-.28.86,6.76,6.76,0,0,0-1.15,2.58,1.15,1.15,0,0,0,.29,1.14h.29a4.83,4.83,0,0,0-.29,2.29v1.14a5,5,0,0,1-.29,1.43H301l-1.15,2v1.72a4.29,4.29,0,0,1-.85,3.15h-.58l-.57-.57a2.59,2.59,0,0,1-.28-2.29,18.92,18.92,0,0,0,.28-4.87,1,1,0,0,0-.28-.57,1.42,1.42,0,0,0-.29.86v1.72c0,.57-.29,1.71-.86,2s-.28.57-.28.86l-.58,1.71.86,1.43c-.57.58-1.14.29-1.43-.28v2.86h.86v1.14a12.25,12.25,0,0,0-.86,4,10.84,10.84,0,0,0,0,1.14,11.47,11.47,0,0,1-.57,3.72,5.51,5.51,0,0,0,0,1.72l-.86,2a8.63,8.63,0,0,1-.86,2l-.85,1.72-2.58,7.72c.86,2.57-1.14,4.29-2.29,6a7.67,7.67,0,0,1-2.29,6.57v1.15c0,.28.29.57.86.28l1.15-.85.57-1.15h.57c.29.29.57.29,1.14-.28h.58a1.41,1.41,0,0,1,.28,1.71,8.45,8.45,0,0,0-.28,2.29c0,.29,0,.57.28.57h.57c.29.29.58,0,.86-.86l.58-1.43h.85c1.15-.28,1.15-.28,1.72-1.71l1.43-2.58.86-1.71,1.14-2.86a4.56,4.56,0,0,1,.86-2.86,1.73,1.73,0,0,0,.29-1.72,2.44,2.44,0,0,1,.57-1.72l.86-1.14,1.43-2.86a12.56,12.56,0,0,1,.57-2.57,8.7,8.7,0,0,0,.86-3.72,10.7,10.7,0,0,1,.85-2.58v-1.43c-.28-.57-.28-.57,0-1.71s.29-.58.58-.58a1.14,1.14,0,0,1,.28.86l.57-1.43a6.51,6.51,0,0,0,.58-2.57v-.86c0-.29,0-.86-.29-.86v1.15c-.57,0-.86.57-1.43.85a19.46,19.46,0,0,0,.29-2.28l1.14-.58a2,2,0,0,0,.57-1.71,4.12,4.12,0,0,1,0-.86,13.94,13.94,0,0,0,.58-4v-.57l.85-2.86h.29a.87.87,0,0,0,.29-.86h-.29a2.55,2.55,0,0,1,.57-2.28,4.28,4.28,0,0,0-2.57-2.86ZM25.87,88.1a.8.8,0,0,0,0-.57L25.3,87l-.57.57-.86,1.71c0,.86-.86,1.72-.86,2.58v.57h.29ZM301.32,159h.29a4.87,4.87,0,0,0,.57-3.44,1.45,1.45,0,0,1,.57-1.43H303v-.57l-.57-.57h-.29c-.28.29-.57.86-.86.86s-.28.28-.28.86v.85a6.31,6.31,0,0,0,.28,3.44ZM37.6,257.72c-.29,0,0,.57,0,.86l2.29,2.29h.28c-.57-.86-.86-1.72-.57-2a2.61,2.61,0,0,1-1.43-.57ZM303.9,156.46h.28a5.45,5.45,0,0,0,0-1.71c-.85.28-.85.28-.85,1.71s.28.29.57,0Z" transform="translate(0 -8.5)"/><path id="path11" class="cls-1" d="M305,177.34a1.7,1.7,0,0,0,.29-1.43c0-.28-.29-.57-.29-.28h-.57v.57c0,1.14.29,1.43.57,1.14Zm.29-23.45H305v1.71A2.88,2.88,0,0,0,305.33,153.89Zm-256.58,111h-.57v.57l.57.57h.58v-.57Zm247.71-95.25c0-.29,0-.29-.28-.29Zm-268.3,77.8,1.43,1.43-1.15-1.71Z" transform="translate(0 -8.5)"/><rect id="circle13" class="cls-1" x="29.78" y="240.53"/><path id="path15" class="cls-1" d="M27.59,86.1H27.3v0Zm238-18.88-.57-.86h-.29ZM16.43,92.68a.88.88,0,0,0,.29-.58v.58Zm281.75,80.66v0ZM46.75,264.58h-.28c.28.29.57,0,.28-.28Zm.57,2h.29l-.29-.29Z" transform="translate(0 -8.5)"/></g></g><text class="cls-2" transform="translate(48.29 223.5)">M</text></svg>